<svg xmlns="http://www.w3.org/2000/svg" width="24.702" height="18.239" viewBox="0 0 24.702 18.239">
  <g id="mail" transform="translate(0.25 0.25)">
    <path id="Path_835" data-name="Path 835" d="M22.689,96.639H1.513A1.513,1.513,0,0,1,0,95.126V81.513A1.513,1.513,0,0,1,1.513,80H22.689A1.513,1.513,0,0,1,24.2,81.513V95.126A1.513,1.513,0,0,1,22.689,96.639Z" transform="translate(0 -78.9)"/>
    <path id="Path_836" data-name="Path 836" d="M22.689,233.832H1.513A1.5,1.5,0,0,1,0,232.319a.757.757,0,0,1,.309-.61l11.345-7.563a.757.757,0,0,1,.9,0l11.345,7.563a.757.757,0,0,1,.309.61A1.5,1.5,0,0,1,22.689,233.832Z" transform="translate(0 -216.093)" stroke="#fff" stroke-width="0.5"/>
    <path id="Path_837" data-name="Path 837" d="M22.689,80H1.513A1.5,1.5,0,0,0,0,81.513a.757.757,0,0,0,.309.61l11.351,8.148a.756.756,0,0,0,.882,0l11.351-8.148a.754.754,0,0,0,.31-.61A1.5,1.5,0,0,0,22.689,80Z" transform="translate(0 -80)" stroke="#fff" stroke-width="0.5"/>
  </g>
</svg>
